<svg width="68" height="45" viewBox="0 0 68 45" fill="none" xmlns="http://www.w3.org/2000/svg">
<path d="M66.9472 20.7441C60.6058 8.37133 48.0518 0 33.677 0C19.3023 0 6.74471 8.37718 0.406867 20.7453C0.139371 21.2745 0 21.8591 0 22.452C0 23.0449 0.139371 23.6295 0.406867 24.1586C6.74822 36.5315 19.3023 44.9028 33.677 44.9028C48.0518 44.9028 60.6093 36.5256 66.9472 24.1575C67.2147 23.6283 67.354 23.0437 67.354 22.4508C67.354 21.8579 67.2147 21.2733 66.9472 20.7441ZM33.677 39.2899C30.3467 39.2899 27.0911 38.3024 24.322 36.4521C21.5529 34.6019 19.3947 31.9721 18.1202 28.8952C16.8458 25.8184 16.5123 22.4327 17.162 19.1664C17.8117 15.9 19.4155 12.8997 21.7704 10.5447C24.1253 8.18983 27.1256 6.58611 30.392 5.9364C33.6583 5.28668 37.044 5.62014 40.1209 6.89461C43.1977 8.16908 45.8275 10.3273 47.6778 13.0964C49.528 15.8655 50.5156 19.121 50.5156 22.4514C50.5166 24.663 50.0818 26.8531 49.236 28.8965C48.3902 30.9399 47.1499 32.7966 45.5861 34.3604C44.0223 35.9243 42.1656 37.1645 40.1221 38.0104C38.0787 38.8562 35.8886 39.291 33.677 39.2899ZM33.677 11.2257C32.675 11.2397 31.6795 11.3888 30.7174 11.6689C31.5105 12.7466 31.8911 14.0729 31.7901 15.4072C31.6892 16.7415 31.1134 17.9954 30.1672 18.9416C29.2211 19.8878 27.9671 20.4636 26.6328 20.5645C25.2985 20.6654 23.9723 20.2849 22.8945 19.4918C22.2808 21.7528 22.3916 24.1494 23.2113 26.3441C24.0309 28.5389 25.5183 30.4214 27.4638 31.7266C29.4094 33.0318 31.7153 33.694 34.057 33.62C36.3987 33.546 38.6582 32.7396 40.5175 31.3142C42.3769 29.8888 43.7424 27.9162 44.4219 25.6741C45.1014 23.432 45.0607 21.0332 44.3055 18.8154C43.5503 16.5976 42.1187 14.6725 40.2121 13.311C38.3054 11.9495 36.0199 11.2202 33.677 11.2257Z" fill="#303138"/>
</svg>
