<svg width="30" height="20" viewBox="0 0 30 20" fill="none" xmlns="http://www.w3.org/2000/svg">
<path d="M14.9999 15.6249C11.4444 15.6249 8.56628 13.3316 8.30144 10.4254L3.38426 7.25862C2.73786 7.9344 2.14302 8.64884 1.66302 9.43008C1.55579 9.60684 1.49992 9.80213 1.49992 10.0002C1.49992 10.1983 1.55579 10.3935 1.66302 10.5703C4.20504 14.7035 9.23753 17.4999 14.9999 17.4999C16.2613 17.4999 17.4781 17.3437 18.6509 17.0913L16.2186 15.523C15.8169 15.5877 15.409 15.6218 14.9999 15.6249ZM29.7101 17.8945L24.5281 14.557C26.1022 13.4515 27.3969 12.0962 28.3367 10.5699C28.4439 10.3932 28.4998 10.1979 28.4998 9.99981C28.4998 9.80174 28.4439 9.60645 28.3367 9.42969C25.7947 5.29653 20.7622 2.50008 14.9999 2.50008C12.5865 2.50251 10.2123 3.00881 8.09425 3.97272L2.13083 0.131742C2.05307 0.0813156 1.96414 0.044153 1.86913 0.0223777C1.77413 0.000602448 1.6749 -0.00535875 1.57713 0.00483481C1.47936 0.0150284 1.38496 0.0411769 1.29932 0.081786C1.21368 0.122395 1.13848 0.176669 1.07802 0.241506L0.157867 1.22861C0.0358041 1.35946 -0.0188915 1.52535 0.00580972 1.68981C0.030511 1.85426 0.132586 2.00381 0.289585 2.10555L27.8689 19.8683C27.9466 19.9187 28.0356 19.9558 28.1306 19.9776C28.2256 19.9994 28.3248 20.0054 28.4226 19.9952C28.5203 19.985 28.6148 19.9588 28.7004 19.9182C28.786 19.8776 28.8612 19.8233 28.9217 19.7585L29.8423 18.7714C29.9643 18.6405 30.0189 18.4746 29.9942 18.3101C29.9694 18.1457 29.8672 17.9961 29.7101 17.8945ZM21.0983 12.3476L19.2561 11.1609C19.4112 10.7873 19.4935 10.3953 19.4998 10C19.509 9.4212 19.3551 8.84868 19.0506 8.32843C18.746 7.80818 18.2993 7.3547 17.7463 7.00441C17.1933 6.65413 16.5494 6.4168 15.8664 6.3115C15.1834 6.20619 14.4802 6.23585 13.8135 6.39808C14.0961 6.71726 14.249 7.10334 14.2499 7.50003C14.2429 7.63203 14.2187 7.76301 14.1777 7.89065L10.7272 5.6684C11.9258 4.83373 13.4379 4.37602 14.9999 4.37506C15.8864 4.37465 16.7644 4.51986 17.5835 4.80239C18.4027 5.08493 19.147 5.49924 19.7739 6.02165C20.4008 6.54405 20.898 7.16431 21.237 7.84694C21.5761 8.52958 21.7503 9.26121 21.7498 10C21.7498 10.8449 21.5019 11.6324 21.0983 12.348V12.3476Z" fill="#303138"/>
</svg>
