<svg width="53" height="60" viewBox="0 0 53 60" fill="none" xmlns="http://www.w3.org/2000/svg">
<path d="M50.625 3.75002H36.5625L35.4609 1.55861C35.2276 1.09011 34.8681 0.696024 34.423 0.420675C33.9779 0.145326 33.4648 -0.000354839 32.9414 2.05461e-05H19.5469C19.0247 -0.00198694 18.5124 0.143151 18.0689 0.418806C17.6254 0.694461 17.2685 1.08948 17.0391 1.55861L15.9375 3.75002H1.875C1.37772 3.75002 0.900805 3.94756 0.549175 4.29919C0.197544 4.65082 0 5.12774 0 5.62502L0 9.37502C0 9.8723 0.197544 10.3492 0.549175 10.7008C0.900805 11.0525 1.37772 11.25 1.875 11.25H50.625C51.1223 11.25 51.5992 11.0525 51.9508 10.7008C52.3024 10.3492 52.5 9.8723 52.5 9.37502V5.62502C52.5 5.12774 52.3024 4.65082 51.9508 4.29919C51.5992 3.94756 51.1223 3.75002 50.625 3.75002ZM6.23437 54.7266C6.3238 56.1546 6.95409 57.4949 7.99694 58.4746C9.03978 59.4543 10.4168 59.9998 11.8477 60H40.6523C42.0832 59.9998 43.4602 59.4543 44.503 58.4746C45.5459 57.4949 46.1762 56.1546 46.2656 54.7266L48.75 15H3.75L6.23437 54.7266Z" fill="#303138"/>
</svg>
